<?xml version="1.0" standalone="no"?><svg xmlns="http://www.w3.org/2000/svg" viewBox="0 0 1440 320"><path fill="#afe8ffa4" fill-opacity="1" d="M0,224L26.7,240C53.3,256,107,288,160,272C213.3,256,267,192,320,149.3C373.3,107,427,85,480,90.7C533.3,96,587,128,640,149.3C693.3,171,747,181,800,154.7C853.3,128,907,64,960,85.3C1013.3,107,1067,213,1120,229.3C1173.3,245,1227,171,1280,138.7C1333.3,107,1387,117,1413,122.7L1440,128L1440,0L1413.3,0C1386.7,0,1333,0,1280,0C1226.7,0,1173,0,1120,0C1066.7,0,1013,0,960,0C906.7,0,853,0,800,0C746.7,0,693,0,640,0C586.7,0,533,0,480,0C426.7,0,373,0,320,0C266.7,0,213,0,160,0C106.7,0,53,0,27,0L0,0Z"></path></svg>