<?xml version="1.0" standalone="no"?><svg xmlns="http://www.w3.org/2000/svg" viewBox="0 0 1440 320"><path fill="#00000010" fill-opacity="1" d="M0,160L26.7,144C53.3,128,107,96,160,80C213.3,64,267,64,320,101.3C373.3,139,427,213,480,250.7C533.3,288,587,288,640,261.3C693.3,235,747,181,800,160C853.3,139,907,149,960,176C1013.3,203,1067,245,1120,240C1173.3,235,1227,181,1280,154.7C1333.3,128,1387,128,1413,128L1440,128L1440,0L1413.3,0C1386.7,0,1333,0,1280,0C1226.7,0,1173,0,1120,0C1066.7,0,1013,0,960,0C906.7,0,853,0,800,0C746.7,0,693,0,640,0C586.7,0,533,0,480,0C426.7,0,373,0,320,0C266.7,0,213,0,160,0C106.7,0,53,0,27,0L0,0Z"></path></svg>